<svg width="121" height="125" viewBox="0 0 121 125" fill="none" xmlns="http://www.w3.org/2000/svg">
<path d="M105.347 45.9529C107.46 45.9529 109.172 44.239 109.172 42.1249C109.172 40.0107 107.46 38.2969 105.347 38.2969C103.235 38.2969 101.523 40.0107 101.523 42.1249C101.523 44.239 103.235 45.9529 105.347 45.9529Z" fill="#F8F9FA"/>
<path d="M3.75446 66.654C5.1441 66.654 6.27063 65.5265 6.27063 64.1356C6.27063 62.7447 5.1441 61.6172 3.75446 61.6172C2.36481 61.6172 1.23828 62.7447 1.23828 64.1356C1.23828 65.5265 2.36481 66.654 3.75446 66.654Z" fill="#F8F9FA"/>
<path d="M15.3209 111.932C16.7105 111.932 17.8371 110.805 17.8371 109.414C17.8371 108.023 16.7105 106.895 15.3209 106.895C13.9312 106.895 12.8047 108.023 12.8047 109.414C12.8047 110.805 13.9312 111.932 15.3209 111.932Z" fill="#F8F9FA"/>
<path d="M28.7695 111.931L64.0785 100.867V55.5059L28.7695 66.4846V111.931Z" fill="#F8F9FA" stroke="#CED4DA" stroke-width="2" stroke-miterlimit="10" stroke-linejoin="round"/>
<path d="M99.3871 111.931L64.0781 100.867V55.5059L99.3871 66.4846V111.931Z" fill="#F8F9FA" stroke="#CED4DA" stroke-width="2" stroke-miterlimit="10" stroke-linejoin="round"/>
<path d="M64.0785 123.08L28.7695 112.016V66.6543L64.0785 77.7182V123.08Z" fill="white" stroke="#CED4DA" stroke-width="2" stroke-miterlimit="10" stroke-linejoin="round"/>
<path d="M64.0781 123.08L99.3871 112.016V66.6543L64.0781 77.7182V123.08Z" fill="white" stroke="#CED4DA" stroke-width="2" stroke-miterlimit="10" stroke-linejoin="round"/>
<path d="M64.0781 55.5056L47.477 43.0801L11.5781 55.1652L28.7691 66.4843L64.0781 55.5056Z" fill="#F8F9FA" stroke="#CED4DA" stroke-width="2" stroke-miterlimit="10" stroke-linejoin="round"/>
<path d="M64.0781 55.5056L80.6792 43.0801L116.578 55.1652L99.3871 66.4843L64.0781 55.5056Z" fill="#F8F9FA" stroke="#CED4DA" stroke-width="2" stroke-miterlimit="10" stroke-linejoin="round"/>
<path d="M28.7691 66.6543L64.0781 77.7182L46.4657 88.9522L11.5781 77.3777L28.7691 66.6543Z" fill="#F8F9FA" stroke="#CED4DA" stroke-width="2" stroke-miterlimit="10" stroke-linejoin="round"/>
<path d="M99.3871 66.6543L64.0781 77.7182L81.6905 88.9522L116.578 77.3777L99.3871 66.6543Z" fill="#F8F9FA" stroke="#CED4DA" stroke-width="2" stroke-miterlimit="10" stroke-linejoin="round"/>
<path d="M73.9301 11.957C78.8767 25.3815 80.3511 28.3643 80.835 41.5922C80.6489 44.6117 80.5335 47.8951 79.1099 50.539C77.2088 54.5834 72.5588 57.3844 68.1655 57.4298C63.6395 57.5106 59.2024 54.7395 57.2053 50.4664C55.8002 47.8731 55.8449 44.3258 57.7723 41.9713C59.8676 39.7131 63.5538 39.1501 66.2055 40.561C69.1224 41.901 70.8634 44.6872 71.5083 47.6255C72.1531 50.5638 71.8698 53.7508 71.0827 56.6484C69.4364 63.6959 68.0729 64.0368 64.0356 75.9686" stroke="#CED4DA" stroke-width="2" stroke-miterlimit="10" stroke-dasharray="4 4"/>
<path d="M79.9512 4.85047C79.9397 6.82445 78.1027 8.03314 75.7732 7.40285C73.3204 6.98474 71.5845 6.55381 71.4727 4.79202C71.529 2.98522 73.5003 2.27807 75.8076 1.48092C78.5742 0.381599 79.7947 2.92149 79.9512 4.85047Z" fill="#F8F9FA" stroke="#CED4DA" stroke-width="2" stroke-miterlimit="10" stroke-linejoin="round"/>
<path d="M64.1026 10.8869C65.3457 12.1666 67.9664 12.5397 69.2435 10.5851C70.6438 8.41832 71.8425 6.84307 70.5547 5.39626C69.3116 4.11663 68.1019 4.97815 65.3353 6.07747C63.1176 7.20897 62.6468 9.48512 64.1026 10.8869Z" fill="#F8F9FA" stroke="#CED4DA" stroke-width="2" stroke-miterlimit="10" stroke-linejoin="round"/>
<path d="M69.8375 2.72161C70.9688 2.23945 72.3239 2.59318 72.9286 3.50627C73.1862 3.79563 73.4885 4.25218 73.5781 4.58654C74.5409 6.83706 74.2382 9.06822 72.9389 9.59538C71.5164 10.3347 69.5566 9.06789 68.8065 6.93954C68.6274 6.27082 68.5378 5.93646 68.4035 5.43492C68.2581 4.21966 68.7062 3.20377 69.8375 2.72161Z" fill="#F8F9FA"/>
<path d="M69.8375 2.72161C70.9688 2.23945 72.3239 2.59318 72.9286 3.50627C73.1862 3.79563 73.4885 4.25218 73.5781 4.58654C74.5409 6.83706 74.2382 9.06822 72.9389 9.59538C71.5164 10.3347 69.5566 9.06789 68.8065 6.93954C68.6274 6.27082 68.5378 5.93646 68.4035 5.43492C68.2581 4.21966 68.7062 3.20377 69.8375 2.72161Z" stroke="#CED4DA" stroke-width="2" stroke-miterlimit="10" stroke-linejoin="round"/>
<path d="M17.8354 38.9499H15.6453V36.7598H13.7681V38.9499H11.5781V40.8896H13.7681V43.0797H15.6453V40.8896H17.8354V38.9499Z" fill="#E9ECEF"/>
<path d="M22.6478 93.897H20.4578V91.707H18.5806V93.897H16.3906V95.8368H18.5806V98.0268H20.4578V95.8368H22.6478V93.897Z" fill="#E9ECEF"/>
<path d="M118.385 94.0221L115.705 92.6693L117.058 89.9897L114.761 88.8301L113.408 91.5097L110.729 90.1568L109.531 92.5301L112.21 93.883L110.857 96.5625L113.154 97.7221L114.507 95.0426L117.187 96.3955L118.385 94.0221Z" fill="#E9ECEF"/>
</svg>
